<svg xmlns="http://www.w3.org/2000/svg" viewBox="0 0 128 128" role="img" aria-label="favicon">

<defs>
  <linearGradient id="navy" x1="0" y1="0" x2="1" y2="1">
    <stop offset="0" stop-color="#0b1f3a"/>
    <stop offset="1" stop-color="#173b63"/>
  </linearGradient>
  <linearGradient id="orange" x1="0" y1="0" x2="1" y2="1">
    <stop offset="0" stop-color="#ff7a2f"/>
    <stop offset="1" stop-color="#d9501f"/>
  </linearGradient>
  <filter id="shadow" x="-20%" y="-20%" width="140%" height="140%">
    <feDropShadow dx="0" dy="10" stdDeviation="14" flood-color="#07111f" flood-opacity="0.18"/>
  </filter>
</defs>


<rect width="128" height="128" rx="28" fill="url(#navy)"/>
<path d="M26 89V31h31c16 0 25 7 25 19 0 7-4 13-11 16 10 3 16 10 16 20 0 14-11 23-29 23H26zm20-35h13c7 0 11-3 11-9s-4-9-12-9H46v18zm0 29h15c9 0 14-4 14-11s-5-11-14-11H46v22z" fill="#fff"/>
<path d="M95 37c-8-6-17-9-28-9-17 0-28 9-28 22 0 14 12 19 29 23 12 3 17 6 17 12 0 7-7 11-18 11-12 0-23-4-32-12l-10 15c11 10 25 15 42 15 20 0 34-10 34-27 0-14-8-22-28-27-13-3-18-5-18-11 0-5 5-9 15-9 9 0 17 3 25 8l8-12z" fill="#ff7a2f" opacity=".95" transform="translate(10 5) scale(.82)"/>

</svg>