<svg xmlns="http://www.w3.org/2000/svg" viewBox="0 0 960 640" role="img" aria-label="project clubhub">

<defs>
  <linearGradient id="navy" x1="0" y1="0" x2="1" y2="1">
    <stop offset="0" stop-color="#0b1f3a"/>
    <stop offset="1" stop-color="#173b63"/>
  </linearGradient>
  <linearGradient id="orange" x1="0" y1="0" x2="1" y2="1">
    <stop offset="0" stop-color="#ff7a2f"/>
    <stop offset="1" stop-color="#d9501f"/>
  </linearGradient>
  <filter id="shadow" x="-20%" y="-20%" width="140%" height="140%">
    <feDropShadow dx="0" dy="10" stdDeviation="14" flood-color="#07111f" flood-opacity="0.18"/>
  </filter>
</defs>


<rect width="960" height="640" rx="36" fill="#fff7f1"/>
<rect x="86" y="80" width="792" height="500" rx="26" fill="#fff" stroke="#f3c9ad" stroke-width="3" filter="url(#shadow)"/>
<text x="134" y="138" font-family="Inter, Arial" font-size="38" font-weight="800" fill="#0b1f3a">UVA ClubHub</text>
<rect x="586" y="106" width="212" height="42" rx="21" fill="#f4f7fb" stroke="#d8e2f1"/>
<text x="616" y="134" font-family="Inter, Arial" font-size="18" fill="#6f7d91">Search clubs...</text>
<g fill="#fff" stroke="#e5b393" stroke-width="3">
  <rect x="126" y="184" width="220" height="142" rx="20"/><rect x="384" y="184" width="220" height="142" rx="20"/><rect x="642" y="184" width="220" height="142" rx="20"/>
  <rect x="126" y="370" width="220" height="142" rx="20"/><rect x="384" y="370" width="220" height="142" rx="20"/><rect x="642" y="370" width="220" height="142" rx="20"/>
</g>
<g font-family="Inter, Arial" fill="#0b1f3a" font-weight="700">
  <text x="152" y="232" font-size="24">Robotics</text><text x="410" y="232" font-size="24">HackCville</text><text x="668" y="232" font-size="24">Data Club</text>
  <text x="152" y="418" font-size="24">Outdoors</text><text x="410" y="418" font-size="24">Consulting</text><text x="668" y="418" font-size="24">Gaming</text>
</g>
<g fill="#ff7a2f"><rect x="152" y="274" width="92" height="12" rx="6"/><rect x="410" y="274" width="92" height="12" rx="6"/><rect x="668" y="274" width="92" height="12" rx="6"/><rect x="152" y="460" width="92" height="12" rx="6"/><rect x="410" y="460" width="92" height="12" rx="6"/><rect x="668" y="460" width="92" height="12" rx="6"/></g>
<g fill="#77869a"><rect x="152" y="296" width="154" height="9" rx="5"/><rect x="410" y="296" width="154" height="9" rx="5"/><rect x="668" y="296" width="154" height="9" rx="5"/><rect x="152" y="482" width="154" height="9" rx="5"/><rect x="410" y="482" width="154" height="9" rx="5"/><rect x="668" y="482" width="154" height="9" rx="5"/></g>

</svg>