<svg xmlns="http://www.w3.org/2000/svg" viewBox="0 0 960 640" role="img" aria-label="project network">

<defs>
  <linearGradient id="navy" x1="0" y1="0" x2="1" y2="1">
    <stop offset="0" stop-color="#0b1f3a"/>
    <stop offset="1" stop-color="#173b63"/>
  </linearGradient>
  <linearGradient id="orange" x1="0" y1="0" x2="1" y2="1">
    <stop offset="0" stop-color="#ff7a2f"/>
    <stop offset="1" stop-color="#d9501f"/>
  </linearGradient>
  <filter id="shadow" x="-20%" y="-20%" width="140%" height="140%">
    <feDropShadow dx="0" dy="10" stdDeviation="14" flood-color="#07111f" flood-opacity="0.18"/>
  </filter>
</defs>


<rect width="960" height="640" rx="36" fill="#eef5ff"/>
<rect x="90" y="190" width="230" height="250" rx="28" fill="#fff" stroke="#c7d9ef" stroke-width="4" filter="url(#shadow)"/>
<rect x="640" y="190" width="230" height="250" rx="28" fill="#fff" stroke="#c7d9ef" stroke-width="4" filter="url(#shadow)"/>
<text x="205" y="468" text-anchor="middle" font-family="Inter, Arial" font-size="28" font-weight="800" fill="#0b1f3a">Sender</text>
<text x="755" y="468" text-anchor="middle" font-family="Inter, Arial" font-size="28" font-weight="800" fill="#0b1f3a">Receiver</text>
<g fill="#0b1f3a"><rect x="148" y="248" width="114" height="20" rx="10"/><rect x="148" y="290" width="146" height="20" rx="10"/><rect x="148" y="332" width="88" height="20" rx="10"/><rect x="698" y="248" width="114" height="20" rx="10"/><rect x="698" y="290" width="146" height="20" rx="10"/><rect x="698" y="332" width="88" height="20" rx="10"/></g>
<g fill="#ff7a2f" stroke="#b63b13" stroke-width="2">
  <rect x="360" y="218" width="74" height="52" rx="12"/><rect x="466" y="292" width="74" height="52" rx="12"/><rect x="540" y="406" width="74" height="52" rx="12"/>
</g>
<g stroke="#0b1f3a" stroke-width="8" fill="none" stroke-linecap="round" marker-end="url(#arrow)">
</g>
<defs><marker id="arrow" viewBox="0 0 10 10" refX="8" refY="5" markerWidth="6" markerHeight="6" orient="auto-start-reverse"><path d="M 0 0 L 10 5 L 0 10 z" fill="#0b1f3a"/></marker></defs>
<path d="M330 238 C420 170 525 170 630 230" fill="none" stroke="#0b1f3a" stroke-width="8" stroke-linecap="round" marker-end="url(#arrow)"/>
<path d="M630 328 C535 386 430 384 330 314" fill="none" stroke="#607a9c" stroke-width="8" stroke-linecap="round" marker-end="url(#arrow)"/>
<path d="M330 418 C443 485 532 482 630 426" fill="none" stroke="#0b1f3a" stroke-width="8" stroke-linecap="round" marker-end="url(#arrow)"/>
<text x="480" y="110" text-anchor="middle" font-family="Inter, Arial" font-size="42" fill="#0b1f3a" font-weight="800">Reliable File Transfer</text>

</svg>