<svg xmlns="http://www.w3.org/2000/svg" viewBox="0 0 960 640" role="img" aria-label="project security">

<defs>
  <linearGradient id="navy" x1="0" y1="0" x2="1" y2="1">
    <stop offset="0" stop-color="#0b1f3a"/>
    <stop offset="1" stop-color="#173b63"/>
  </linearGradient>
  <linearGradient id="orange" x1="0" y1="0" x2="1" y2="1">
    <stop offset="0" stop-color="#ff7a2f"/>
    <stop offset="1" stop-color="#d9501f"/>
  </linearGradient>
  <filter id="shadow" x="-20%" y="-20%" width="140%" height="140%">
    <feDropShadow dx="0" dy="10" stdDeviation="14" flood-color="#07111f" flood-opacity="0.18"/>
  </filter>
</defs>


<rect width="960" height="640" rx="36" fill="#f4f7fb"/>
<path d="M480 74l300 98v160c0 157-98 260-300 312-202-52-300-155-300-312V172l300-98z" fill="#0b1f3a" filter="url(#shadow)"/>
<path d="M480 128l236 78v130c0 120-75 197-236 241-161-44-236-121-236-241V206l236-78z" fill="#fff" opacity=".08"/>
<path d="M360 332l82 82 178-198" fill="none" stroke="#ff7a2f" stroke-width="36" stroke-linecap="round" stroke-linejoin="round"/>
<g font-family="Inter, Arial" fill="#fff">
  <text x="480" y="530" text-anchor="middle" font-size="42" font-weight="800">Web Security Report</text>
  <text x="480" y="574" text-anchor="middle" font-size="24" opacity=".82">Find the weakness. Explain the risk. Reduce the damage.</text>
</g>
<g opacity=".24" stroke="#fff" stroke-width="4"><path d="M120 180h110M760 180h110M96 500h160M720 500h144M138 280h72M790 286h64"/></g>

</svg>