<svg xmlns="http://www.w3.org/2000/svg" viewBox="0 0 960 640" role="img" aria-label="project hootasks">

<defs>
  <linearGradient id="navy" x1="0" y1="0" x2="1" y2="1">
    <stop offset="0" stop-color="#0b1f3a"/>
    <stop offset="1" stop-color="#173b63"/>
  </linearGradient>
  <linearGradient id="orange" x1="0" y1="0" x2="1" y2="1">
    <stop offset="0" stop-color="#ff7a2f"/>
    <stop offset="1" stop-color="#d9501f"/>
  </linearGradient>
  <filter id="shadow" x="-20%" y="-20%" width="140%" height="140%">
    <feDropShadow dx="0" dy="10" stdDeviation="14" flood-color="#07111f" flood-opacity="0.18"/>
  </filter>
</defs>


<rect width="960" height="640" rx="36" fill="#f4f7fb"/>
<rect x="84" y="76" width="792" height="492" rx="24" fill="#fff" stroke="#d8e2f1" stroke-width="3" filter="url(#shadow)"/>
<rect x="84" y="76" width="792" height="80" rx="24" fill="#0b1f3a"/>
<circle cx="132" cy="116" r="10" fill="#ff7a2f"/><circle cx="164" cy="116" r="10" fill="#fff" opacity=".75"/><circle cx="196" cy="116" r="10" fill="#fff" opacity=".45"/>
<text x="252" y="126" font-family="Inter, Arial" font-size="30" fill="#fff" font-weight="700">HooTasks dashboard</text>
<g font-family="Inter, Arial">
  <text x="126" y="215" font-size="26" fill="#0b1f3a" font-weight="700">Not started</text>
  <text x="390" y="215" font-size="26" fill="#0b1f3a" font-weight="700">In progress</text>
  <text x="654" y="215" font-size="26" fill="#0b1f3a" font-weight="700">Finished</text>
</g>
<g fill="#fff" stroke="#c8d6e8" stroke-width="3">
  <rect x="116" y="242" width="214" height="86" rx="14"/><rect x="116" y="350" width="214" height="100" rx="14"/><rect x="380" y="242" width="214" height="120" rx="14"/><rect x="380" y="386" width="214" height="86" rx="14"/><rect x="644" y="242" width="214" height="86" rx="14"/><rect x="644" y="350" width="214" height="98" rx="14"/>
</g>
<g fill="#ff7a2f"><rect x="136" y="274" width="64" height="10" rx="5"/><rect x="400" y="274" width="86" height="10" rx="5"/><rect x="664" y="274" width="70" height="10" rx="5"/></g>
<g fill="#6f7d91"><rect x="136" y="296" width="142" height="8" rx="4"/><rect x="136" y="394" width="160" height="8" rx="4"/><rect x="400" y="296" width="148" height="8" rx="4"/><rect x="400" y="320" width="116" height="8" rx="4"/><rect x="664" y="296" width="124" height="8" rx="4"/><rect x="664" y="394" width="152" height="8" rx="4"/></g>

</svg>