<svg xmlns="http://www.w3.org/2000/svg" viewBox="0 0 960 640" role="img" aria-label="project tracker">

<defs>
  <linearGradient id="navy" x1="0" y1="0" x2="1" y2="1">
    <stop offset="0" stop-color="#0b1f3a"/>
    <stop offset="1" stop-color="#173b63"/>
  </linearGradient>
  <linearGradient id="orange" x1="0" y1="0" x2="1" y2="1">
    <stop offset="0" stop-color="#ff7a2f"/>
    <stop offset="1" stop-color="#d9501f"/>
  </linearGradient>
  <filter id="shadow" x="-20%" y="-20%" width="140%" height="140%">
    <feDropShadow dx="0" dy="10" stdDeviation="14" flood-color="#07111f" flood-opacity="0.18"/>
  </filter>
</defs>


<rect width="960" height="640" rx="36" fill="#fff"/>
<rect x="94" y="94" width="772" height="452" rx="28" fill="#f4f7fb" stroke="#d8e2f1" stroke-width="4" filter="url(#shadow)"/>
<rect x="94" y="94" width="772" height="84" rx="28" fill="#0b1f3a"/>
<text x="134" y="148" font-family="Inter, Arial" font-size="34" fill="#fff" font-weight="800">Coding Interview Tracker</text>
<g stroke="#c6d4e6" stroke-width="3"><path d="M134 244h732M134 308h732M134 372h732M134 436h732M292 178v368M520 178v368M700 178v368"/></g>
<g font-family="Inter, Arial" font-size="22" fill="#0b1f3a" font-weight="700">
<text x="150" y="222">Topic</text><text x="314" y="222">Pattern</text><text x="542" y="222">Mistake</text><text x="722" y="222">Status</text>
</g>
<g font-family="Inter, Arial" font-size="20" fill="#394961">
<text x="150" y="282">Arrays</text><text x="314" y="282">Two pointers</text><text x="542" y="282">Edge case</text><text x="722" y="282">Review</text>
<text x="150" y="346">Trees</text><text x="314" y="346">DFS</text><text x="542" y="346">Base case</text><text x="722" y="346">Done</text>
<text x="150" y="410">Graphs</text><text x="314" y="410">BFS</text><text x="542" y="410">Visited set</text><text x="722" y="410">Review</text>
<text x="150" y="474">DP</text><text x="314" y="474">State choice</text><text x="542" y="474">Recurrence</text><text x="722" y="474">Practice</text>
</g>
<rect x="722" y="262" width="78" height="28" rx="14" fill="#ffdfcf"/><rect x="722" y="326" width="64" height="28" rx="14" fill="#dff1e0"/><rect x="722" y="390" width="78" height="28" rx="14" fill="#ffdfcf"/><rect x="722" y="454" width="86" height="28" rx="14" fill="#e5ecf8"/>

</svg>