<svg xmlns="http://www.w3.org/2000/svg" viewBox="0 0 960 640" role="img" aria-label="project minecraft">

<defs>
  <linearGradient id="navy" x1="0" y1="0" x2="1" y2="1">
    <stop offset="0" stop-color="#0b1f3a"/>
    <stop offset="1" stop-color="#173b63"/>
  </linearGradient>
  <linearGradient id="orange" x1="0" y1="0" x2="1" y2="1">
    <stop offset="0" stop-color="#ff7a2f"/>
    <stop offset="1" stop-color="#d9501f"/>
  </linearGradient>
  <filter id="shadow" x="-20%" y="-20%" width="140%" height="140%">
    <feDropShadow dx="0" dy="10" stdDeviation="14" flood-color="#07111f" flood-opacity="0.18"/>
  </filter>
</defs>


<rect width="960" height="640" rx="36" fill="#eaf7ec"/>
<g filter="url(#shadow)">
<polygon points="480,88 760,240 480,394 200,240" fill="#79b55b"/>
<polygon points="200,240 480,394 480,560 200,406" fill="#9a6b42"/>
<polygon points="760,240 480,394 480,560 760,406" fill="#7d5332"/>
<path d="M480 88v160M340 164l280 152M620 164L340 316" stroke="#fff" stroke-opacity=".22" stroke-width="8"/>
</g>
<g transform="translate(600 358) rotate(-28)">
  <rect x="0" y="0" width="54" height="180" rx="16" fill="#0b1f3a"/>
  <rect x="-58" y="-28" width="170" height="54" rx="16" fill="#ff7a2f"/>
  <rect x="-28" y="-64" width="54" height="72" rx="14" fill="#ff7a2f"/>
</g>
<text x="480" y="606" text-anchor="middle" font-family="Inter, Arial" font-size="40" font-weight="800" fill="#0b1f3a">Minecraft Forge Mod</text>

</svg>