<svg xmlns="http://www.w3.org/2000/svg" viewBox="0 0 960 640" role="img" aria-label="project ai">

<defs>
  <linearGradient id="navy" x1="0" y1="0" x2="1" y2="1">
    <stop offset="0" stop-color="#0b1f3a"/>
    <stop offset="1" stop-color="#173b63"/>
  </linearGradient>
  <linearGradient id="orange" x1="0" y1="0" x2="1" y2="1">
    <stop offset="0" stop-color="#ff7a2f"/>
    <stop offset="1" stop-color="#d9501f"/>
  </linearGradient>
  <filter id="shadow" x="-20%" y="-20%" width="140%" height="140%">
    <feDropShadow dx="0" dy="10" stdDeviation="14" flood-color="#07111f" flood-opacity="0.18"/>
  </filter>
</defs>


<rect width="960" height="640" rx="36" fill="#101827"/>
<g opacity=".25" stroke="#fff"><path d="M120 152h720M120 268h720M120 384h720M120 500h720M180 90v470M330 90v470M480 90v470M630 90v470M780 90v470"/></g>
<rect x="104" y="100" width="752" height="460" rx="30" fill="#fff" opacity=".08" stroke="#fff" stroke-opacity=".12"/>
<g fill="#fff" font-family="Inter, Arial">
  <text x="152" y="166" font-size="36" font-weight="800">Movie Recommendation Model</text>
  <text x="152" y="208" font-size="21" opacity=".75">Ranked choices based on preferences, features, and evaluation.</text>
</g>
<g>
  <circle cx="244" cy="356" r="54" fill="#ff7a2f"/><circle cx="444" cy="290" r="54" fill="#89a9d6"/><circle cx="642" cy="380" r="54" fill="#fff" opacity=".9"/>
  <path d="M296 342L392 304M496 304L592 360" stroke="#fff" stroke-width="10" stroke-linecap="round" opacity=".9"/>
  <path d="M244 356C310 444 516 464 642 380" fill="none" stroke="#ff7a2f" stroke-width="9" stroke-linecap="round" opacity=".82"/>
</g>
<g font-family="Inter, Arial" font-size="22" fill="#fff"><text x="212" y="498">user</text><text x="396" y="498">features</text><text x="600" y="498">ranked list</text></g>

</svg>