<svg xmlns="http://www.w3.org/2000/svg" viewBox="0 0 960 640" role="img" aria-label="system map">

<defs>
  <linearGradient id="navy" x1="0" y1="0" x2="1" y2="1">
    <stop offset="0" stop-color="#0b1f3a"/>
    <stop offset="1" stop-color="#173b63"/>
  </linearGradient>
  <linearGradient id="orange" x1="0" y1="0" x2="1" y2="1">
    <stop offset="0" stop-color="#ff7a2f"/>
    <stop offset="1" stop-color="#d9501f"/>
  </linearGradient>
  <filter id="shadow" x="-20%" y="-20%" width="140%" height="140%">
    <feDropShadow dx="0" dy="10" stdDeviation="14" flood-color="#07111f" flood-opacity="0.18"/>
  </filter>
</defs>


<rect width="960" height="640" rx="36" fill="#0b1f3a"/>
<g opacity=".18" stroke="#fff" stroke-width="1.5">
  <path d="M0 110h960M0 230h960M0 350h960M0 470h960M140 0v640M300 0v640M460 0v640M620 0v640M780 0v640"/>
</g>
<g fill="#ffffff" font-family="Inter, Arial" font-weight="700">
  <text x="88" y="96" font-size="35">Problem</text>
  <text x="700" y="96" font-size="35">Product</text>
  <text x="363" y="560" font-size="35">Systems</text>
</g>
<g stroke-linecap="round" stroke-linejoin="round">
  <path d="M205 164 C330 80 472 118 529 258 S747 420 811 286" fill="none" stroke="#ff7a2f" stroke-width="16"/>
  <path d="M181 434 C314 378 384 450 466 348 S623 208 750 230" fill="none" stroke="#89a9d6" stroke-width="14" opacity=".95"/>
  <path d="M264 282 C395 270 463 390 584 398 S731 352 805 460" fill="none" stroke="#fff" stroke-width="10" opacity=".7"/>
</g>
<g fill="#fff">
  <circle cx="205" cy="164" r="22"/><circle cx="529" cy="258" r="22"/><circle cx="811" cy="286" r="22"/>
  <circle cx="181" cy="434" r="18"/><circle cx="466" cy="348" r="18"/><circle cx="750" cy="230" r="18"/>
</g>
<text x="80" y="615" font-family="Inter, Arial" font-size="24" fill="#d8e2f1">Practical software works when the visible interface and hidden system are designed together.</text>

</svg>